<?xml version="1.0" encoding="utf-8"?>
<!-- Generator: Adobe Illustrator 16.0.0, SVG Export Plug-In . SVG Version: 6.00 Build 0)  -->
<!DOCTYPE svg PUBLIC "-//W3C//DTD SVG 1.1//EN" "http://www.w3.org/Graphics/SVG/1.1/DTD/svg11.dtd">
<svg version="1.1" id="Слой_1" xmlns="http://www.w3.org/2000/svg" xmlns:xlink="http://www.w3.org/1999/xlink" x="0px" y="0px"
	 width="900.292px" height="876.729px" viewBox="0 0 900.292 876.729" enable-background="new 0 0 900.292 876.729"
	 xml:space="preserve">
<path fill="#4D4D4D" d="M450.059,876.718c0,0-448.389-340.586-448.389-654.644c0,0-28.929-215,233.843-219.83
	c0,0,103.664-24.141,214.546,120.798v200.493c0,0-113.028-206.538-224.66-173.923c0,0-82.703,5.425-80.895,103.269
	c1.808,97.831,43.393,150.363,305.555,445.692V876.718z"/>
<path fill="#4D4D4D" d="M450.048,876.729c0,0,448.391-340.586,448.391-654.646c0,0,28.928-215-233.857-219.83
	c0,0-103.65-24.14-214.533,120.799v200.493c0,0,113.03-206.539,224.647-173.923c0,0,82.716,5.423,80.909,103.269
	c-1.808,97.831-43.393,150.361-305.557,445.692V876.729z"/>
<g id="Слой_2">
</g>
<polygon fill="#4D4D4D" points="450.048,698.582 427.125,780.5 450.048,876.729 475.875,780.75 "/>
<path fill="#4D4D4D" d="M451.837,156.176"/>
<path fill="#4D4D4D" d="M304.199,534.084c0,0-226.65-228.04-132.561-361.84l-15.405-16.735l-46.498,67.425v106.495l166.492,235.488
	L304.199,534.084z"/>
<path fill="#4D4D4D" d="M595.229,533.249c0,0,226.65-228.04,132.562-361.84l15.405-16.735l46.498,67.425v106.495L623.202,564.082
	L595.229,533.249z"/>
<polygon fill="#4D4D4D" points="450.048,323.544 401.625,154.674 450.048,123.052 497.625,154.674 "/>
<path fill="#4D4D4D" d="M433.628,680.054c0,0,16.39,18.586,32.86,0V710.5l-35.863,6L433.628,680.054z"/>
</svg>
