<?xml version="1.0" encoding="utf-8"?>
<!-- Generator: Adobe Illustrator 16.0.0, SVG Export Plug-In . SVG Version: 6.00 Build 0)  -->
<!DOCTYPE svg PUBLIC "-//W3C//DTD SVG 1.1//EN" "http://www.w3.org/Graphics/SVG/1.1/DTD/svg11.dtd">
<svg version="1.1" id="Слой_1" xmlns="http://www.w3.org/2000/svg" xmlns:xlink="http://www.w3.org/1999/xlink" x="0px" y="0px"
	 width="900px" height="900px" viewBox="0 0 900 900" enable-background="new 0 0 900 900" xml:space="preserve">
<g>
	<path fill="#4D4D4D" d="M170.387,81.031l138.452,167.061c0,0,30.99-19.094,133.642-21.467V16.591
		C442.48,16.591,299.268,2.267,170.387,81.031z"/>
	<path fill="#4D4D4D" d="M714.574,81.031L576.123,248.076c0,0-30.99-19.078-133.643-21.482V16.591
		C442.48,16.591,585.679,2.267,714.574,81.031z"/>
	<path fill="#4D4D4D" d="M170.387,81.031c0,0,257.778-167.369,544.188,0l-259.565,50.796L170.387,81.031z"/>
</g>
<path fill="#4D4D4D" d="M814.601,174.152L647.548,312.604c0,0,19.078,30.991,21.483,133.643h210.002
	C879.033,446.247,893.35,303.033,814.601,174.152z"/>
<path fill="#4D4D4D" d="M814.601,718.308l-167.053-138.45c0,0,19.078-30.991,21.483-133.611h210.002
	C879.033,446.247,893.35,589.412,814.601,718.308z"/>
<path fill="#4D4D4D" d="M814.601,174.152c0,0,167.369,257.762,0,544.155l-50.796-259.532L814.601,174.152z"/>
<g>
	<path fill="#4D4D4D" d="M726.708,820.122L588.256,653.086c0,0-30.99,19.061-133.642,21.467v210.003
		C454.614,884.556,597.828,898.87,726.708,820.122z"/>
	<path fill="#4D4D4D" d="M182.521,820.122l138.451-167.036c0,0,30.991,19.061,133.643,21.467v210.003
		C454.614,884.556,311.417,898.87,182.521,820.122z"/>
	<path fill="#4D4D4D" d="M726.708,820.122c0,0-257.777,167.369-544.188,0l259.564-50.796L726.708,820.122z"/>
</g>
<g>
	<path fill="#4D4D4D" d="M82.502,727.024l167.045-138.499c0,0-19.078-30.989-21.482-133.594H18.062
		C18.062,454.932,3.737,598.145,82.502,727.024z"/>
	<path fill="#4D4D4D" d="M82.502,182.869l167.045,138.42c0,0-19.078,31.006-21.482,133.643H18.062
		C18.062,454.932,3.737,311.733,82.502,182.869z"/>
	<path fill="#4D4D4D" d="M82.502,727.024c0,0-167.369-257.761,0-544.156l50.789,259.534L82.502,727.024z"/>
</g>
<rect x="447.844" y="674.283" fill="#4D4D4D" width="16.056" height="220.207"/>
<rect x="126.536" y="446.247" fill="#4D4D4D" width="101.671" height="13.382"/>
<polygon fill="#4D4D4D" points="668.975,444 668.975,448.494 888.987,453 888.983,448.5 888.987,444 888.987,441 "/>
<polygon fill="#4D4D4D" points="440.492,226.676 437.995,6.71 450,6.645 450,226.806 "/>
<polygon fill="#4D4D4D" points="8.116,459.629 14,454.932 228.116,452.938 228.116,465 14.5,465 "/>
<path fill="#4D4D4D" d="M-365.369,849.57"/>
</svg>
