<?xml version="1.0" encoding="utf-8"?>
<!-- Generator: Adobe Illustrator 16.0.0, SVG Export Plug-In . SVG Version: 6.00 Build 0)  -->
<!DOCTYPE svg PUBLIC "-//W3C//DTD SVG 1.1//EN" "http://www.w3.org/Graphics/SVG/1.1/DTD/svg11.dtd">
<svg version="1.1" id="Capa_1" xmlns="http://www.w3.org/2000/svg" xmlns:xlink="http://www.w3.org/1999/xlink" x="0px" y="0px"
	 width="310.42px" height="310.42px" viewBox="0 0 310.42 310.42" enable-background="new 0 0 310.42 310.42" xml:space="preserve">
<g>
	<g>
		<path fill="#FFFFFF" d="M188.85,233.912c0,0,3.496-2.085,6.447,0.866c16.032,16.031,64.128,64.127,64.128,64.127
			c12.79,12.791,30.677,15.836,42.02,4.49l1.953-1.951c11.343-11.344,8.298-29.229-4.493-42.02c0,0-48.198-48.199-64.263-64.263
			c-2.816-2.813-0.731-6.312-0.731-6.312c29.027-48.389,22.717-110.354-18.947-152.018c-49.109-49.111-129.019-49.111-178.13,0
			c-49.108,49.111-49.109,129.021,0,178.132C78.497,256.629,140.462,262.938,188.85,233.912z M60.089,191.71
			c-36.288-36.288-36.288-95.333,0-131.62c36.287-36.288,95.331-36.287,131.619,0c36.288,36.288,36.289,95.332,0.001,131.62
			C155.42,227.996,96.377,227.996,60.089,191.71z"/>
		<g>
			<path fill="#FFFFFF" d="M171.693,110.486c-11.997-28.354-44.829-41.661-73.184-29.663c-6.613,2.797-14.239-0.294-17.039-6.906
				c-2.798-6.612,0.296-14.24,6.906-17.038c41.559-17.586,89.675,1.917,107.261,43.476c2.799,6.612-0.295,14.24-6.905,17.038
				c-1.655,0.699-3.372,1.031-5.062,1.031C178.606,118.424,173.791,115.445,171.693,110.486z"/>
		</g>
	</g>
</g>
</svg>
