<?xml version="1.0" encoding="utf-8"?>
<!-- Generator: Adobe Illustrator 16.0.0, SVG Export Plug-In . SVG Version: 6.00 Build 0)  -->
<!DOCTYPE svg PUBLIC "-//W3C//DTD SVG 1.1//EN" "http://www.w3.org/Graphics/SVG/1.1/DTD/svg11.dtd">
<svg version="1.1" id="Capa_1" xmlns="http://www.w3.org/2000/svg" xmlns:xlink="http://www.w3.org/1999/xlink" x="0px" y="0px"
	 width="551px" height="586px" viewBox="49.901 18.901 551 586" enable-background="new 49.901 18.901 551 586"
	 xml:space="preserve">
<g>
	<g id="Profile">
		<g>
			<path fill="#4D4D4D" stroke="#4D4D4D" stroke-width="22" stroke-miterlimit="10" d="M451.73,340.809
				c19.717-32.078,31.571-71.825,31.571-115.042C483.301,119.859,413.063,34,326.401,34c-86.661,0-156.899,85.859-156.899,191.766
				c0,43.218,11.854,82.965,31.589,115.042c-81.1,38.477-136.189,112.985-136.189,198.758v17.433
				c0,19.263,15.62,34.868,34.867,34.868h453.267c19.264,0,34.866-15.605,34.866-34.868v-17.433
				C587.901,453.777,532.812,379.285,451.73,340.809z M326.401,86.301c56.693,0,104.601,63.875,104.601,139.466
				c0,75.591-47.908,139.467-104.601,139.467s-104.6-63.876-104.6-139.467C221.801,150.176,269.708,86.301,326.401,86.301z
				 M117.201,539.567c0-69.192,48.639-128.989,118.896-157.127c25.557,22.035,56.658,35.095,90.305,35.095
				s64.747-13.06,90.305-35.095c70.255,28.137,118.895,87.935,118.895,157.127H117.201z"/>
		</g>
	</g>
</g>
</svg>
