<?xml version="1.0" encoding="UTF-8" standalone="no"?>
<svg width="32px" height="32px" viewBox="0 0 32 32" version="1.1" xmlns="http://www.w3.org/2000/svg" xmlns:xlink="http://www.w3.org/1999/xlink" xmlns:sketch="http://www.bohemiancoding.com/sketch/ns">
    <!-- Generator: Sketch 3.3.3 (12081) - http://www.bohemiancoding.com/sketch -->
    <title>Alfa</title>
    <desc>Created with Sketch.</desc>
    <defs></defs>
    <g id="Page-1" stroke="none" stroke-width="1" fill="none" fill-rule="evenodd" sketch:type="MSPage">
        <g id="Alfa" sketch:type="MSArtboardGroup" fill="#FF2E20">
            <path d="M6.08150593,28.0211935 L26.7973868,27.991922 L26.8695861,32 L6,31.9334783 L6.08150593,28.0211935 L6.08150593,28.0211935 Z M12.6852528,17.0186496 L10.8055534,21.5297349 L6.95600825,19.9461059 C6.95600825,19.9461059 13.1063352,3.39970613 13.5162709,2.28799619 C13.9262066,1.17628624 14.29752,-0.0643210192 16.5866799,0.00259288474 C18.8758398,0.0695067887 19.1889264,1.29543994 19.5378179,2.20265161 C19.8867093,3.10986328 26.0757759,19.8658092 26.0757759,19.8658092 L22.4122983,21.4785517 L20.2577344,16.9207416 L12.6852528,17.0186496 L12.6852528,17.0186496 Z M13.9701699,12.9771666 L19.13053,12.9335118 L16.5410141,5.04813603 L13.9701699,12.9771666 L13.9701699,12.9771666 Z" id="Rectangle-1859" sketch:type="MSShapeGroup"></path>
        </g>
    </g>
</svg>