<?xml version="1.0" encoding="utf-8"?>
<!-- Generator: Adobe Illustrator 16.0.0, SVG Export Plug-In . SVG Version: 6.00 Build 0)  -->
<!DOCTYPE svg PUBLIC "-//W3C//DTD SVG 1.1//EN" "http://www.w3.org/Graphics/SVG/1.1/DTD/svg11.dtd">
<svg version="1.1" id="Слой_1" xmlns="http://www.w3.org/2000/svg" xmlns:xlink="http://www.w3.org/1999/xlink" x="0px" y="0px"
	 width="60px" height="40px" viewBox="0 0 60 40" enable-background="new 0 0 60 40" xml:space="preserve">
<g>
	<g>
		<path fill="#111111" d="M27.73,26.492V40h-9.598V19V0.188H34.02c3.044,0,5.737,0.561,8.08,1.682
			c2.342,1.121,4.156,2.716,5.441,4.785c1.285,2.069,1.928,4.416,1.928,7.041c0,3.883-1.391,6.986-4.17,9.311
			c-2.78,2.324-6.595,3.486-11.443,3.486H27.73z M27.73,19.082h6.289c1.859,0,3.276-0.465,4.252-1.395
			c0.975-0.93,1.463-2.242,1.463-3.938c0-1.859-0.502-3.345-1.504-4.457c-1.003-1.112-2.37-1.677-4.102-1.695H27.73V19.082z"/>
	</g>
	<rect x="13.917" y="19.063" fill="#111111" width="12.917" height="7.375"/>
	<rect x="13.833" y="29.427" fill="#111111" width="18.333" height="6.146"/>
</g>
<polygon display="none" fill="#111111" points="18.133,19.063 13.833,19.063 13.833,26.459 18.133,26.459 18.133,19.063 "/>
</svg>
