<?xml version="1.0" encoding="utf-8"?>
<!-- Generator: Adobe Illustrator 16.0.0, SVG Export Plug-In . SVG Version: 6.00 Build 0)  -->
<!DOCTYPE svg PUBLIC "-//W3C//DTD SVG 1.1//EN" "http://www.w3.org/Graphics/SVG/1.1/DTD/svg11.dtd">
<svg version="1.1" id="Слой_1" xmlns="http://www.w3.org/2000/svg" xmlns:xlink="http://www.w3.org/1999/xlink" x="0px" y="0px"
	 width="100px" height="150px" viewBox="0 0 100 150" enable-background="new 0 0 100 150" xml:space="preserve">
<path fill="#E5E5E5" d="M69.758,8.296H12.875c-6.627,0-12,5.373-12,12v112c0,6.627,5.373,12,12,12h74.5c6.627,0,12-5.373,12-12
	V37.913C89.503,28.041,79.63,18.168,69.758,8.296z"/>
<rect x="9.375" y="28.816" fill="#232323" width="22.875" height="4.201"/>
<path fill="#9B9B9B" d="M69.815,8.539C69.676,8.398,69.578,8.25,69.5,8.1v17.696c0,6.627,5.373,12,12,12h17.572
	C89.32,28.043,79.568,18.291,69.815,8.539z"/>
<rect x="9.375" y="41.903" fill="#232323" width="22.875" height="4.201"/>
<rect x="9.458" y="54.032" fill="#232323" width="80.75" height="4.201"/>
<rect x="9.458" y="66.619" fill="#232323" width="80.75" height="4.201"/>
<rect x="9.417" y="79.815" fill="#232323" width="80.75" height="4.201"/>
<rect x="9.417" y="92.903" fill="#232323" width="80.75" height="4.201"/>
<rect x="9.5" y="104.731" fill="#232323" width="41.25" height="4.803"/>
<rect x="9.5" y="117.618" fill="#232323" width="41.25" height="4.201"/>
<circle fill="#487FC1" cx="73.519" cy="117.915" r="17.394"/>
<circle fill="#E5E5E5" cx="73.436" cy="117.942" r="13.478"/>
<circle fill="#487FC1" cx="73.538" cy="117.997" r="9.303"/>
<circle fill="#E5E5E5" cx="73.52" cy="117.997" r="5.49"/>
</svg>
