<?xml version="1.0" encoding="UTF-8" standalone="no"?>
<svg width="32px" height="32px" viewBox="0 0 32 32" version="1.1" xmlns="http://www.w3.org/2000/svg" xmlns:xlink="http://www.w3.org/1999/xlink" xmlns:sketch="http://www.bohemiancoding.com/sketch/ns">
    <!-- Generator: Sketch 3.3.3 (12081) - http://www.bohemiancoding.com/sketch -->
    <title>PSB</title>
    <desc>Created with Sketch.</desc>
    <defs></defs>
    <g id="Page-1" stroke="none" stroke-width="1" fill="none" fill-rule="evenodd" sketch:type="MSPage">
        <g id="PSB" sketch:type="MSArtboardGroup">
            <g id="Fill-1-+-Fill-2-+-Fill-3" sketch:type="MSLayerGroup">
                <path d="M22.1987693,12.3896471 L22.1987693,12.3563922 C22.8018461,12.1618824 23.6055384,11.6505098 23.6055384,10.3065098 C23.6055384,8.79309803 22.4,8.09788235 20.7027693,8.09788235 L17.820923,8.09788235 L17.820923,11.7195294 L16.1261539,11.7195294 C13.8486154,11.7195294 13.3784615,13.3465098 13.3784615,14.2349804 C13.3784615,15.4974118 14.0935385,16.0564706 15.4123077,16.7253333 C16.2153846,17.1363138 17.1741539,17.3860392 17.1741539,18.3209411 C17.1741539,18.8109803 16.7298461,19.4032941 15.7692308,19.4032941 L13.9821538,19.4032941 C14.2498462,18.9352157 14.3618462,18.4250981 14.3618462,17.9789803 C14.3618462,17.4004706 14.1612308,15.0770196 10.9889231,15.0770196 L8.39876923,15.0770196 L8.39876923,24.0357646 L10.1630769,24.0357646 L10.1630769,20.1323922 L10.8775385,20.8602354 L15.7021538,20.8602354 C17.955077,20.8602354 19.0276923,19.6774902 19.0276923,18.2657254 C19.0276923,17.7650197 18.9378461,17.3640784 18.7815384,17.036549 L20.5913846,17.036549 C23.3821539,17.036549 24.0301539,15.6235294 24.0301539,14.5173333 C24.0301539,13.3935686 23.3156923,12.5603137 22.1987693,12.3896471 L22.1987693,12.3896471 L22.1987693,12.3896471 Z M10.9889231,19.4032941 L10.1630769,19.4032941 L10.1630769,16.4756078 L10.9889231,16.4756078 C12.0166154,16.4756078 12.4855385,17.1124706 12.4855385,17.8873725 C12.4855385,18.6064314 12.0615385,19.4032941 10.9889231,19.4032941 L10.9889231,19.4032941 L10.9889231,19.4032941 Z M17.820923,13.8478431 L17.820923,16.0207059 C17.396923,15.7609412 16.9076923,15.5551372 16.3944616,15.3273725 C15.8350769,15.0770196 15.2332308,14.7582745 15.2332308,14.0392157 C15.2332308,13.6740392 15.4566154,13.1300392 16.528,13.1300392 L18.5144616,13.1300392 L17.820923,13.8478431 L17.820923,13.8478431 Z M19.5852307,9.4989804 L20.3895384,9.4989804 C21.7526154,9.4989804 21.819077,10.3529412 21.819077,10.6139608 C21.819077,11.001098 21.6178461,11.7195294 20.4566154,11.7195294 L19.5852307,11.7195294 L19.5852307,9.4989804 L19.5852307,9.4989804 Z M20.5913846,15.6235294 L19.5852307,15.6235294 L19.5852307,13.1300392 L20.5913846,13.1300392 C21.819077,13.1300392 22.1538461,13.7342745 22.1538461,14.3711372 C22.1538461,15.0098824 21.7076923,15.6235294 20.5913846,15.6235294 L20.5913846,15.6235294 L20.5913846,15.6235294 Z" id="Fill-1" fill="#1A4188" sketch:type="MSShapeGroup"></path>
                <path d="M31.6972307,7.89709803 C31.6972307,3.61286275 28.2916923,0.141176471 24.0904616,0.141176471 L13.3446154,0.141176471 C9.87692307,0.141176471 6.91938461,2.5229804 6.02215384,5.81709803 L19.0123077,5.81709803 C24.0086154,5.81709803 26.1298461,8.18760784 26.1298461,13.7487059 L26.1298461,26.3184314 C29.352,25.4029803 31.6972307,22.3774118 31.6972307,18.8555294 L31.6972307,7.89709803" id="Fill-2" fill="#1A4188" sketch:type="MSShapeGroup"></path>
                <path d="M0.433846154,24.2390589 C0.433846154,28.5232941 3.84,31.9949803 8.04061539,31.9949803 L18.787077,31.9949803 C22.2547693,31.9949803 25.2116923,29.612549 26.1095384,26.3184314 L13.1187692,26.3184314 C8.12246154,26.3184314 6.00123077,23.948549 6.00123077,18.387451 L6.00123077,5.81709803 C2.77907693,6.73254902 0.433846154,9.7587451 0.433846154,13.2806275 L0.433846154,24.2390589" id="Fill-3" fill="#E15D29" sketch:type="MSShapeGroup"></path>
            </g>
        </g>
    </g>
</svg>