<?xml version="1.0" encoding="UTF-8" standalone="no"?>
<svg width="32px" height="32px" viewBox="0 0 32 32" version="1.1" xmlns="http://www.w3.org/2000/svg" xmlns:xlink="http://www.w3.org/1999/xlink" xmlns:sketch="http://www.bohemiancoding.com/sketch/ns">
    <!-- Generator: Sketch 3.3.3 (12081) - http://www.bohemiancoding.com/sketch -->
    <title>Sberbank</title>
    <desc>Created with Sketch.</desc>
    <defs></defs>
    <g id="Page-1" stroke="none" stroke-width="1" fill="none" fill-rule="evenodd" sketch:type="MSPage">
        <g id="Sberbank" sketch:type="MSArtboardGroup" fill="#3B9A29">
            <path d="M0,14.7124579 C0.00614347046,14.5543711 0.0143944226,14.3970528 0.0245536748,14.2405033 L9.71542344,20.0406643 L30.2391205,7.75689497 C31.0220864,9.35043053 31.5521071,11.0710525 31.8145774,12.843434 C31.9170255,13.5376737 31.9767163,14.2294906 31.9944966,14.9151404 C31.998095,15.0605078 32,15.206536 32,15.352344 C32,16.1344649 31.9479293,16.9044718 31.8480212,17.6575193 C31.8069573,17.9636719 31.7574266,18.2674018 31.7000642,18.5684886 C31.2576747,20.9064817 30.3383936,23.0991073 29.0315454,25.0080461 C27.7896798,26.8240379 26.198136,28.3827734 24.3401001,29.5657561 C22.4168701,30.7890451 20.2468332,31.5744698 18.0128722,31.8713718 C17.4841215,31.9420733 16.9570641,31.984362 16.4344519,32 L15.5431111,32 C14.5647742,31.971367 13.6073926,31.85243 12.6804913,31.6493561 C12.0238922,31.5017861 11.3742782,31.3143502 10.7485828,31.0872686 C9.31367452,30.5674699 7.94882887,29.8342453 6.71437171,28.9195317 C4.88067787,27.5601258 3.32024951,25.8025013 2.16749681,23.7424684 C1.25668248,22.1238239 0.599024997,20.3192853 0.25506188,18.371802 C0.115659353,17.5806471 0.0301309949,16.7807666 1.6581046e-13,15.9792047 L1.65948523e-13,14.7124579 L0,14.7124579 L0,14.7124579 Z M22.198694,0 L22.199564,0 C22.8434974,0.282534742 23.4683891,0.608656202 24.069163,0.975063151 L9.71542344,9.56627916 L3.04126896,5.56955543 C3.38734877,5.07354409 3.75967562,4.59713533 4.15549779,4.14363295 L9.71542344,7.47144617 L22.198694,0 L22.198694,0 Z M9.71542344,11.6622134 L2.0923541,7.09855665 C1.80300174,7.62540351 1.5413781,8.1687694 1.30938821,8.72513026 L9.71542344,13.7550641 L27.0930751,3.35512468 C26.6477222,2.9102122 26.177604,2.49128965 25.6863189,2.10232161 L9.71542344,11.6622134 L9.71542344,11.6622134 Z M9.71542344,15.8490161 L0.694276321,10.4516991 C0.571719617,10.8646747 0.464826464,11.2844783 0.372961853,11.7086869 C0.331897949,11.9003077 0.293797419,12.0925892 0.259083603,12.2861922 L9.71542344,17.9471529 L29.36048,6.18802783 C29.1670139,5.88407772 28.9646578,5.58673522 28.7531998,5.29622058 C28.6602769,5.1691342 28.5652372,5.04358958 28.4689276,4.92002726 C28.4170685,4.85284988 28.3647861,4.78633326 28.311657,4.71981664 L9.71542344,15.8490161 L9.71542344,15.8490161 Z" id="Clip-4" sketch:type="MSShapeGroup"></path>
        </g>
    </g>
</svg>