<?xml version="1.0" encoding="UTF-8" standalone="no"?>
<svg width="32px" height="32px" viewBox="0 0 32 32" version="1.1" xmlns="http://www.w3.org/2000/svg" xmlns:xlink="http://www.w3.org/1999/xlink" xmlns:sketch="http://www.bohemiancoding.com/sketch/ns">
    <!-- Generator: Sketch 3.3.3 (12081) - http://www.bohemiancoding.com/sketch -->
    <title>WebMoney</title>
    <desc>Created with Sketch.</desc>
    <defs></defs>
    <g id="Page-1" stroke="none" stroke-width="1" fill="none" fill-rule="evenodd" sketch:type="MSPage">
        <g id="WebMoney" sketch:type="MSArtboardGroup" fill="#0068A3">
            <path d="M15.9398496,0 C18.4426843,0 20.8129951,0.585029209 22.9240481,1.62368206 C23.2556793,1.78156246 23.5863455,1.95526318 23.9179768,2.14704428 L22.4505649,3.46529719 L20.2459089,1.17716142 L16.5249487,4.50847013 L14.3148245,2.08731448 L7.38337823,8.35862097 L11.8271079,13.2742224 L10.080817,14.815897 L14.4576414,19.7389243 L12.7216437,21.2770474 L18.9759961,28.2647887 L22.6885931,24.8340379 L25.8984359,28.510488 C25.2599413,29.0086669 24.5645129,29.4774651 23.7983193,29.9107483 C21.4772225,31.2393329 18.79458,32 15.9398496,32 C7.16046801,32 0,24.8117603 0,16.0004843 C0,7.18727109 7.16046801,0 15.9398496,0 Z M13.0349403,14.988952 L16.825379,11.5627213 L20.2385107,15.368317 L16.4483937,18.7932562 L13.0349403,14.988952 Z M15.7301275,21.5631047 L19.5208878,18.1378427 L22.9343412,21.9424697 L19.1439025,25.3687004 L15.7301275,21.5631047 Z M10.3227052,8.49164085 L14.1131438,5.06637878 L17.5253106,8.87100582 L13.7348719,12.2962679 L10.3227052,8.49164085 Z M17.2782759,6.64776568 L20.1211049,4.07906127 L22.6805516,6.93253155 L19.8377226,9.50220455 L17.2782759,6.64776568 Z M22.3292992,18.4158284 L25.1730932,15.8461554 L27.7325399,18.7002714 L24.8897109,21.2692987 L22.3292992,18.4158284 Z M24.8302039,24.179593 L27.6723895,21.6095971 L30.2324796,24.4630674 L27.3896506,27.0320947 L24.8302039,24.179593 Z M25.9753126,10.9696205 L27.8705319,9.25682806 L29.5766153,11.1591416 L27.682361,12.8716112 L25.9753126,10.9696205 Z M23.5538579,5.31724395 L25.4490772,3.60477435 L27.1554823,5.50708787 L25.2599413,7.21955747 L23.5538579,5.31724395 Z M28.3983756,16.6216743 L30.2935949,14.9088818 L32,16.8108724 L30.1047807,18.5236649 L28.3983756,16.6216743 Z M19.898838,12.3863469 L22.7413453,9.81635103 L25.3007921,12.6698213 L22.4589281,15.2388486 L19.898838,12.3863469 Z" id="Fill-1" sketch:type="MSShapeGroup"></path>
        </g>
    </g>
</svg>